<?xml version="1.0" encoding="UTF-8"?>
<svg version="1.1" xmlns="http://www.w3.org/2000/svg" width="192" height="192">
<path d="M0 0 C1.1185437 -0.0071553 2.2370874 -0.01431061 3.38952637 -0.02168274 C4.61243378 -0.02437164 5.83534119 -0.02706055 7.0953064 -0.02983093 C8.38680603 -0.03640213 9.67830566 -0.04297333 11.00894165 -0.04974365 C15.28950771 -0.07074486 19.57007396 -0.08114435 23.85067749 -0.09111023 C25.32766106 -0.09515967 26.80464445 -0.09927664 28.28162766 -0.10346031 C35.22386665 -0.12250564 42.16609508 -0.1367364 49.10835516 -0.14507228 C57.10459184 -0.15483376 65.1005509 -0.1811273 73.09668982 -0.22157317 C79.28796064 -0.25180761 85.47915222 -0.26654819 91.67049539 -0.26985329 C95.363063 -0.272196 99.05533383 -0.28105355 102.74782181 -0.30631447 C106.87424208 -0.33408807 111.00004838 -0.32974178 115.1265564 -0.32279968 C116.33731842 -0.33560974 117.54808044 -0.3484198 118.79553223 -0.36161804 C130.71165978 -0.28874606 139.68947531 3.44787272 148.18661499 11.80732727 C154.2579558 18.4706238 157.60654404 25.61354852 157.64628601 34.64805603 C157.65701897 36.32587158 157.65701897 36.32587158 157.66796875 38.0375824 C157.67065765 39.26048981 157.67334656 40.48339722 157.67611694 41.74336243 C157.68268814 43.03486206 157.68925934 44.32636169 157.69602966 45.65699768 C157.71703087 49.93756374 157.72743036 54.21812999 157.73739624 58.49873352 C157.74144568 59.97571709 157.74556266 61.45270049 157.74974632 62.92968369 C157.76879165 69.87192268 157.78302241 76.81415111 157.79135829 83.75641119 C157.80111977 91.75264787 157.82741331 99.74860693 157.86785918 107.74474585 C157.89809362 113.93601667 157.9128342 120.12720825 157.9161393 126.31855142 C157.91848201 130.01111904 157.92733956 133.70338986 157.95260048 137.39587784 C157.98037408 141.52229811 157.97602779 145.64810441 157.96908569 149.77461243 C157.98830078 151.59075546 157.98830078 151.59075546 158.00790405 153.44358826 C157.93503207 165.35971581 154.19841329 174.33753134 145.83895874 182.83467102 C139.17566221 188.90601183 132.03273749 192.25460007 122.99822998 192.29434204 C121.87968628 192.30149734 120.76114258 192.30865265 119.60870361 192.31602478 C118.3857962 192.31871368 117.16288879 192.32140259 115.90292358 192.32417297 C114.61142395 192.33074417 113.31992432 192.33731537 111.98928833 192.34408569 C107.70872227 192.3650869 103.42815602 192.37548639 99.14755249 192.38545227 C97.67056892 192.38950171 96.19358553 192.39361869 94.71660233 192.39780235 C87.77436333 192.41684769 80.8321349 192.43107844 73.88987482 192.43941432 C65.89363814 192.4491758 57.89767908 192.47546934 49.90154016 192.51591522 C43.71026934 192.54614965 37.51907776 192.56089023 31.32773459 192.56419533 C27.63516698 192.56653804 23.94289615 192.57539559 20.25040817 192.60065651 C16.1239879 192.62843011 11.9981816 192.62408382 7.87167358 192.61714172 C6.66091156 192.62995178 5.45014954 192.64276184 4.20269775 192.65596008 C-7.7134298 192.5830881 -16.69124533 188.84646932 -25.18838501 180.48701477 C-31.25972581 173.82371824 -34.60831406 166.68079352 -34.64805603 157.64628601 C-34.65878899 155.96847046 -34.65878899 155.96847046 -34.66973877 154.25675964 C-34.67242767 153.03385223 -34.67511658 151.81094482 -34.67788696 150.55097961 C-34.68774376 148.61373016 -34.68774376 148.61373016 -34.69779968 146.63734436 C-34.71880089 142.3567783 -34.72920038 138.07621205 -34.73916626 133.79560852 C-34.7432157 132.31862495 -34.74733267 130.84164156 -34.75151634 129.36465836 C-34.77056167 122.42241936 -34.78479243 115.48019093 -34.79312831 108.53793085 C-34.80288979 100.54169417 -34.82918333 92.54573511 -34.8696292 84.54959619 C-34.89986364 78.35832537 -34.91460422 72.16713379 -34.91790932 65.97579062 C-34.92025203 62.28322301 -34.92910958 58.59095218 -34.9543705 54.8984642 C-34.9821441 50.77204393 -34.97779781 46.64623763 -34.97085571 42.51972961 C-34.98366577 41.30896759 -34.99647583 40.09820557 -35.00967407 38.85075378 C-34.93680209 26.93462623 -31.20018331 17.9568107 -22.84072876 9.45967102 C-16.17743223 3.38833022 -9.03450751 0.03974197 0 0 Z " fill="#18AF00" transform="translate(34.500885009765625,-0.1471710205078125)"/>
<path d="M0 0 C23.43 0 46.86 0 71 0 C73.47176164 9.88704657 75.88988321 19.7379692 78.0625 29.6875 C81.50612005 45.56344954 81.50612005 45.56344954 85.38671875 61.3359375 C91.91087823 86.30922629 91.91087823 86.30922629 87.375 96.625 C83.47149692 102.91701021 77.92641116 106.03311765 71 108 C68.24017233 108.38540877 65.53517404 108.42147613 62.75146484 108.40405273 C61.96989517 108.41091599 61.1883255 108.41777924 60.3830719 108.42485046 C57.82550377 108.44300272 55.26855556 108.43929924 52.7109375 108.43359375 C50.92070315 108.43815969 49.13047056 108.44346648 47.34024048 108.44947815 C43.59980111 108.45838538 39.85957555 108.45601174 36.11914062 108.44604492 C31.33300202 108.43453219 26.5475987 108.45481391 21.76155663 108.48396206 C18.06915631 108.50232688 14.37693236 108.5020315 10.68449783 108.49632454 C8.91989736 108.4961715 7.15528481 108.50220158 5.390728 108.51461601 C2.92326633 108.52953768 0.4571659 108.51884307 -2.01025391 108.50170898 C-2.73352371 108.51137695 -3.45679352 108.52104492 -4.20198059 108.53100586 C-9.25730135 108.45770553 -12.10193915 107.16480709 -16 104 C-21.61599685 96.98000394 -22.6646112 89.71261375 -22 81 C-21.21940738 77.06913366 -20.0994494 73.27080432 -18.9375 69.4375 C-18.28883949 67.20970034 -17.64040821 64.98183392 -16.9921875 62.75390625 C-16.65928711 61.62742676 -16.32638672 60.50094727 -15.98339844 59.34033203 C-10.19554967 39.68061334 -5.12143354 19.84555496 0 0 Z " fill="#FAFDF9" transform="translate(62,49)"/>
<path d="M0 0 C0.81210938 -0.03287109 1.62421875 -0.06574219 2.4609375 -0.09960938 C8.74326198 -0.15498243 12.71796798 1.5481068 17.625 5.4375 C20.12509087 7.93759087 19.92212739 8.8587859 19.9375 12.3125 C19.95425781 13.17617187 19.97101563 14.03984375 19.98828125 14.9296875 C19.54778669 17.97052091 18.84347739 19.31675289 16.625 21.4375 C14.36328125 21.828125 14.36328125 21.828125 11.9375 21.6875 C11.12925781 21.65140625 10.32101563 21.6153125 9.48828125 21.578125 C8.56595703 21.50851563 8.56595703 21.50851563 7.625 21.4375 C7.625 17.4375 7.625 17.4375 8.625 15.625 C10.04649454 12.51548069 9.81582781 9.80879128 9.625 6.4375 C8.42372662 5.02126964 8.42372662 5.02126964 4.9375 5.125 C-0.42249732 5.22991098 -3.28259017 7.452513 -7.125 11.09765625 C-12.03765459 16.25382604 -14.87929675 21.80971665 -17.375 28.4375 C-17.85646484 29.70013672 -17.85646484 29.70013672 -18.34765625 30.98828125 C-20.21756413 36.71976632 -20.72877603 42.32434112 -20.875 48.3125 C-20.9056958 49.03840332 -20.9363916 49.76430664 -20.96801758 50.51220703 C-20.96941915 54.5403283 -20.51342584 56.2644677 -17.96875 59.4453125 C-15.65573199 61.64054446 -15.65573199 61.64054446 -13.375 61.4375 C-14.6125 60.385625 -14.6125 60.385625 -15.875 59.3125 C-18.375 56.4375 -18.375 56.4375 -18.875 53.3125 C-18.31676073 50.10262419 -17.89865748 49.37530842 -15.375 47.4375 C-13.21875 47.0390625 -13.21875 47.0390625 -10.875 47.0625 C-9.71484375 47.05089844 -9.71484375 47.05089844 -8.53125 47.0390625 C-5.8799561 47.5289755 -4.99947978 48.32059979 -3.375 50.4375 C-2.875 52.875 -2.875 52.875 -3.375 55.4375 C-5.875 57.75 -5.875 57.75 -8.375 59.4375 C-5.735 59.1075 -3.095 58.7775 -0.375 58.4375 C0.49609162 55.82422515 0.81379799 54.13038829 0.875 51.4375 C0.91367188 50.4165625 0.91367188 50.4165625 0.953125 49.375 C0.74570117 47.37157434 0.74570117 47.37157434 -0.50390625 45.69921875 C-3.21513586 43.87097832 -5.33217192 44.14579587 -8.5625 44.25 C-10.19251953 44.29060547 -10.19251953 44.29060547 -11.85546875 44.33203125 C-12.68691406 44.36683594 -13.51835938 44.40164062 -14.375 44.4375 C-11.12777012 30.1996459 -11.12777012 30.1996459 -6.375 26.4375 C-0.78894165 25.43071041 4.28141106 26.85421439 9.625 28.4375 C13.49378887 28.63421808 16.92045742 28.62295363 20.625 27.4375 C20.06018386 31.39121299 18.90503407 34.15425094 16.625 37.4375 C10.60311224 40.44844388 2.75930877 38.10104136 -3.375 36.4375 C-6.08971005 35.84981617 -6.08971005 35.84981617 -8.375 36.4375 C-9.43151792 38.06892504 -10.43656404 39.73540842 -11.375 41.4375 C-10.78074219 41.4060791 -10.18648437 41.3746582 -9.57421875 41.34228516 C-6.84154437 41.21638239 -4.10948124 41.1391677 -1.375 41.0625 C-0.44042969 41.01222656 0.49414062 40.96195313 1.45703125 40.91015625 C7.73313051 40.77848983 11.28697379 41.83642984 16.17626953 45.80859375 C17.625 47.4375 17.625 47.4375 18.5 50.8125 C17.05866146 56.78375965 14.14302998 60.64399752 9.140625 64.20703125 C6.67172742 65.70809176 4.19006977 67.10840444 1.625 68.4375 C0.98820312 68.80101562 0.35140625 69.16453125 -0.3046875 69.5390625 C-8.29658585 73.0072448 -21.17693599 72.6861745 -29.5 70.375 C-33.94261483 68.57416951 -36.94931687 65.53332561 -39.375 61.4375 C-44.4574657 48.59112981 -40.3780958 35.88425202 -35.24609375 23.7734375 C-30.5490632 14.51030408 -22.44440528 5.398011 -12.75390625 1.33984375 C-8.44351349 0.18874464 -4.44303114 0.03143654 0 0 Z " fill="#1EB107" transform="translate(104.375,67.5625)"/>
<path d="M0 0 C5.11581854 2.85883977 9.41748335 5.74146171 11.8125 11.25 C12.34162103 14.5942504 12.58676238 17.86393572 12.8125 21.25 C16.7725 21.25 20.7325 21.25 24.8125 21.25 C24.8125 21.58 24.8125 21.91 24.8125 22.25 C2.0425 22.25 -20.7275 22.25 -44.1875 22.25 C-44.1875 21.92 -44.1875 21.59 -44.1875 21.25 C-39.2375 21.25 -34.2875 21.25 -29.1875 21.25 C-29.31125 19.4865625 -29.31125 19.4865625 -29.4375 17.6875 C-29.42086232 12.97903536 -28.08556063 9.91968049 -25.1875 6.25 C-18.0429674 -0.73576521 -9.42467706 -4.48203627 0 0 Z " fill="#28B412" transform="translate(107.1875,26.75)"/>
<path d="M0 0 C5.12881052 2.8661 9.36826259 5.75046583 11.8125 11.25 C12.33130092 14.24191986 12.62110786 17.22072448 12.8125 20.25 C11.1625 20.25 9.5125 20.25 7.8125 20.25 C7.565 19.033125 7.3175 17.81625 7.0625 16.5625 C5.74162121 11.37071255 3.60210156 8.45694058 -0.875 5.4375 C-5.75355265 3.6885849 -10.18048062 3.31251749 -15.1796875 4.87109375 C-20.24098601 7.31485376 -22.31332082 11.09096913 -24.1875 16.25 C-24.54248419 17.57773307 -24.8823938 18.90992571 -25.1875 20.25 C-26.5075 20.25 -27.8275 20.25 -29.1875 20.25 C-29.65128947 14.56857903 -28.65479373 10.73708601 -25.1875 6.25 C-18.0429674 -0.73576521 -9.42467706 -4.48203627 0 0 Z " fill="#ECF8EA" transform="translate(107.1875,26.75)"/>
<path d="M0 0 C0.7734375 -0.00773437 1.546875 -0.01546875 2.34375 -0.0234375 C4.9950439 0.4664755 5.87552022 1.25809979 7.5 3.375 C8 5.8125 8 5.8125 7.5 8.375 C5 10.6875 5 10.6875 2.5 12.375 C4.15 12.375 5.8 12.375 7.5 12.375 C6.84 13.695 6.18 15.015 5.5 16.375 C2.86 16.375 0.22 16.375 -2.5 16.375 C-2.5 15.715 -2.5 15.055 -2.5 14.375 C-3.325 13.6325 -4.15 12.89 -5 12.125 C-7.5 9.375 -7.5 9.375 -8 6.25 C-7.14342451 1.32469092 -4.86276545 -0.04862765 0 0 Z " fill="#1FB108" transform="translate(93.5,114.625)"/>
<path d="M0 0 C2.1235507 3.53925116 2.28506324 6.47551792 1.5 10.5 C0.0625 12.9375 0.0625 12.9375 -2.5 14.5 C-5.49538717 15.10320189 -8.44989437 15.36965361 -11.5 15.5 C-9.202779 13.75728062 -6.90133271 12.10088848 -4.5 10.5 C-4.08333333 8 -4.08333333 8 -4.5 5.5 C-7.26223278 2.73776722 -9.70706617 2.92143709 -13.5 2.5 C-13.83 1.51 -14.16 0.52 -14.5 -0.5 C-9.67459803 -2.10846732 -4.43002162 -2.65801297 0 0 Z " fill="#ECF8EA" transform="translate(104.5,112.5)"/>
<path d="M0 0 C6.75395042 0.42882225 13.36103014 1.72184319 20 3 C20 3.33 20 3.66 20 4 C18.35 4 16.7 4 15 4 C15 4.66 15 5.32 15 6 C5.595 6.495 5.595 6.495 -4 7 C-2 2 -2 2 0 0 Z " fill="#E3F5E0" transform="translate(96,103)"/>
<path d="M0 0 C4.19743292 -0.09327629 7.19630079 0.09815039 11 2 C10.01 3.485 10.01 3.485 9 5 C7.0546875 5.29296875 7.0546875 5.29296875 4.875 5.1875 C3.59625 5.125625 2.3175 5.06375 1 5 C0.67 3.35 0.34 1.7 0 0 Z " fill="#5FC84E" transform="translate(90,126)"/>
<path d="M0 0 C2.0625 0.4375 2.0625 0.4375 4 1 C4.33 2.32 4.66 3.64 5 5 C3.35 5.33 1.7 5.66 0 6 C-0.38218767 4.34385343 -0.71395102 2.67542976 -1 1 C-0.67 0.67 -0.34 0.34 0 0 Z " fill="#3EBC2B" transform="translate(78,54)"/>
<path d="M0 0 C1.98 0.495 1.98 0.495 4 1 C4 2.65 4 4.3 4 6 C2.35 5.67 0.7 5.34 -1 5 C-0.67 3.35 -0.34 1.7 0 0 Z " fill="#35B921" transform="translate(115,54)"/>
<path d="M0 0 C0.2475 0.5775 0.495 1.155 0.75 1.75 C2.17525423 4.31545762 3.86612265 5.99948998 6 8 C6.66 8.66 7.32 9.32 8 10 C5.0212021 9.66902246 2.64069234 9.3926824 0.0625 7.8125 C-1.551632 5.05898071 -0.73199739 2.99453478 0 0 Z " fill="#CFEECA" transform="translate(85,120)"/>
<path d="M0 0 C2.66528805 2.66528805 2 4.40586794 2 8 C0.68 8 -0.64 8 -2 8 C-1.34 5.36 -0.68 2.72 0 0 Z " fill="#6CCC5D" transform="translate(92,104)"/>
</svg>
